<svg viewBox="0 0 32 32" fill="none" xmlns="http://www.w3.org/2000/svg">
  <rect width="32" height="32" rx="8" fill="#16a34a"/>
  <path 
    d="M16 6C14 6 12.7 7.3 12 8.5C11.3 7.3 10 6 8 6C5.3 6 3.3 8.3 3.3 11C3.3 13 4.7 14.3 5.3 15C4 15.7 2.7 17.7 2.7 20.3C2.7 24.3 6 27.3 10.7 27.3H21.3C26 27.3 29.3 24.3 29.3 20.3C29.3 17.7 28 15.7 26.7 15C27.3 14.3 28.7 13 28.7 11C28.7 8.3 26.7 6 24 6C22 6 20.7 7.3 20 8.5C19.3 7.3 18 6 16 6Z" 
    fill="white"
  />
  <circle cx="11" cy="16" r="2" fill="#16a34a" />
  <circle cx="21" cy="16" r="2" fill="#16a34a" />
  <ellipse cx="16" cy="21.5" rx="3" ry="2" fill="#16a34a" opacity="0.6" />
</svg>